# xmcd
#
# Track frame offsets:
#	183
#	11218
#	26083
#	39248
#	52848
#	65705
#	79893
#	92485
#	106048
#	120070
#	132333
#
# Disc length: 1954 seconds
#
# Revision: 0
# Processed by: cddbd v1.5.1PL0 Copyright (c) Steve Scherf et al.
# Submitted via: audiograbber 1.83.01
#
DISCID=7f07a00b
DTITLE=Various Artist - The Blues Volume Two
DYEAR=1900
DGENRE=Blues
TTITLE0=Chuck Berry - Thirty Days
TTITLE1=John Lee Hooker - Sugar Mama
TTITLE2=Howlin' Wolf - Evil
TTITLE3=Muddy Waters - Got My Mojo Working
TTITLE4=Bo Diddley - I'm a Man
TTITLE5=Little Walter - Blues with a Feeling
TTITLE6=Little Walter - Key to the Highway
TTITLE7=Jimmy Witherspoon - It Ain't No Secret
TTITLE8=Chuck Berry - Wee Wee Hours
TTITLE9=Buddy Guy - Ten Years Ago
TTITLE10=Otis Rush - So Many Roads
EXTD=
EXTT0=
EXTT1=
EXTT2=
EXTT3=
EXTT4=
EXTT5=
EXTT6=
EXTT7=
EXTT8=
EXTT9=
EXTT10=
PLAYORDER=
